<svg width="24" height="24" viewBox="0 0 24 24" fill="none" xmlns="http://www.w3.org/2000/svg">
<path d="M15.8301 11.1492L14.9706 10.9724C14.0223 10.7777 13.2774 10.0654 13.0736 9.15767L12.8892 8.33574C12.7995 7.93455 12.4286 7.64811 12 7.64811C11.5714 7.64811 11.2005 7.93455 11.1108 8.33574L10.9264 9.15767C10.7226 10.0654 9.97768 10.7777 9.02848 10.9724L8.1699 11.1492C7.75104 11.235 7.45167 11.5895 7.45167 12C7.45167 12.4105 7.75104 12.765 8.1699 12.8508L9.02937 13.0276C9.97768 13.2223 10.7226 13.9346 10.9264 14.8423L11.1108 15.6643C11.2005 16.0654 11.5714 16.3519 12 16.3519C12.4286 16.3519 12.7995 16.0654 12.8892 15.6643L13.0736 14.8423C13.2774 13.9346 14.0223 13.2223 14.9715 13.0276L15.8301 12.8508C16.249 12.765 16.5483 12.4105 16.5483 12C16.5483 11.5895 16.249 11.235 15.8301 11.1492ZM12 12.9528C11.7251 12.5848 11.3884 12.2626 11.0042 12C11.3884 11.7374 11.7251 11.4152 12 11.0472C12.2749 11.4152 12.6116 11.7374 12.9958 12C12.6116 12.2626 12.2749 12.5848 12 12.9528Z" fill="#4A62FF"/>
<path d="M17.1746 6.0204L14.8249 4.72163C13.082 3.75946 10.9171 3.75946 9.17506 4.72163L6.82538 6.0204C5.08245 6.98343 4 8.77688 4 10.7021V13.2979C4 15.2231 5.08245 17.0166 6.82538 17.9796L9.17506 19.2784C10.0465 19.7595 11.0233 20 12 20C12.9767 20 13.9539 19.7595 14.8249 19.2784L17.1746 17.9796C18.9176 17.0166 20 15.2231 20 13.2979V10.7021C20 8.77688 18.9176 6.98343 17.1746 6.0204ZM18.1807 13.2979C18.1807 14.6035 17.4464 15.819 16.2649 16.4717L13.9153 17.7705C12.7338 18.4233 11.2662 18.4233 10.0847 17.7705L7.73505 16.4717C6.55355 15.819 5.81933 14.6035 5.81933 13.2979V10.7021C5.81933 9.39652 6.55355 8.18105 7.73505 7.52826L10.0847 6.22949C10.6755 5.9031 11.3377 5.73991 12 5.73991C12.6623 5.73991 13.3245 5.9031 13.9153 6.22949L16.2649 7.52826C17.4464 8.18105 18.1807 9.39652 18.1807 10.7021V13.2979Z" fill="#4A62FF"/>
</svg>
