<svg width="157" height="40" viewBox="0 0 157 40" fill="none" xmlns="http://www.w3.org/2000/svg">
<path d="M8.19551 14.6755C2.13177 19.4491 3.41117 26.6632 4.80884 29.6736C5.29254 26.932 7.55031 22.9003 16.2589 17.9009C28.3541 10.9574 25.6125 2.41904 22.5484 0C20.4519 10.16 15.7752 8.70856 8.19551 14.6755Z" fill="#2970FF"/>
<path d="M14.4854 21.45C7.06616 24.675 6.85112 30.2631 7.06708 33.0614C8.19638 30.97 11.6809 27.5574 19.1617 25.3193C29.7431 22.1536 31.5795 15.8044 29.1603 12.4178C25.4888 18.7888 21.7462 18.2939 14.4854 21.45Z" fill="#2970FF"/>
<path d="M17.7121 27.8995C12.917 29.154 8.51797 31.286 9.80857 36.1246C10.9112 34.5806 14.6462 31.8288 20.6143 31.2862C31.2569 30.3187 33.5159 23.5453 32.0645 21.4486C27.3877 26.4481 23.7061 26.3313 17.7121 27.8995Z" fill="#2970FF"/>
<path d="M18.1096 33.0592C14.2586 33.5046 12.5914 36.0717 12.0652 37.7372C13.1897 36.7648 16.7735 36.1244 21.7419 36.1244C28.999 36.1244 33.0309 31.9314 31.9017 28.5448C27.3865 33.3828 23.6773 32.4153 18.1096 33.0592Z" fill="#2970FF"/>
<path d="M20.452 38.3825C18.0877 38.5853 14.8079 38.7046 13.1947 38.7047C14.324 39.6746 18.3718 39.9377 21.2598 39.9971C25.4782 40.0838 28.1928 38.2209 28.838 35.9634C25.6127 39.1863 24.6449 38.0229 20.452 38.3825Z" fill="#2970FF"/>
<path d="M5.90328 35.4793C5.09693 33.7054 4.19203 33.2563 3.69761 32.4152C3.54797 33.344 3.97181 35.0815 4.82653 36.6081C6.07498 38.8381 7.66703 39.4819 9.01852 39.027C5.90328 36.4469 6.67312 37.173 5.90328 35.4793Z" fill="#2970FF"/>
<path d="M59.053 14.7778C59.053 18.0667 56.4308 20.2222 52.2753 20.2222C48.1197 20.2222 45.453 18.0222 45.1642 14.4889H49.4086C49.453 16 50.453 16.9556 52.1864 16.9556C53.6308 16.9556 54.5864 16.4 54.5864 15.4C54.5864 14.7111 53.8975 14.2 52.9642 14.0222L50.053 13.4667C47.4975 12.9778 45.8086 11.4889 45.8086 8.91111C45.8086 5.93333 48.4308 3.84444 52.0086 3.84444C55.8086 3.84444 58.5419 6.02222 58.7864 9.46667H54.5419C54.4308 8.02222 53.453 7.08889 52.053 7.08889C50.8086 7.08889 50.053 7.75556 50.053 8.62222C50.053 9.33333 50.7642 9.75556 51.6086 9.91111L54.6975 10.5111C57.5419 11.0667 59.053 12.4667 59.053 14.7778Z" fill="#2970FF"/>
<path d="M64.6947 20H60.8947V4.04444H64.6947V12.8889L68.4058 8.04444H72.7836L68.3614 13.7111L73.4058 20H68.5614L64.6947 14.5556V20Z" fill="#2970FF"/>
<path d="M86.1857 8.04444L80.4968 24.2889H76.3412L78.0079 19.8667L73.3412 8.04444H77.4746L80.0524 15.4444L82.3635 8.04444H86.1857Z" fill="#2970FF"/>
<path d="M99.7048 14.0222C99.7048 17.4444 97.5937 20.2222 94.3715 20.2222C92.9715 20.2222 91.7937 19.6667 90.8159 18.6444V20H87.327V4.04444H91.127V9.15556C92.0603 8.26667 93.127 7.82222 94.3715 7.82222C97.5937 7.82222 99.7048 10.5556 99.7048 14.0222ZM95.7492 14.0222C95.7492 12.1111 94.6159 11.2444 93.4603 11.2444C92.3048 11.2444 91.1715 12.0889 91.1715 14C91.1715 15.8889 92.2826 16.8 93.4603 16.8C94.6159 16.8 95.7492 15.8889 95.7492 14.0222Z" fill="#2970FF"/>
<path d="M106.922 20.2222C103.388 20.2222 100.677 17.4444 100.677 14.0222C100.677 10.6 103.388 7.82222 106.922 7.82222C110.455 7.82222 113.166 10.6 113.166 14.0222C113.166 17.4444 110.455 20.2222 106.922 20.2222ZM106.922 16.8222C108.1 16.8222 109.211 15.8889 109.211 14.0222C109.211 12.1556 108.1 11.2444 106.922 11.2444C105.744 11.2444 104.633 12.1556 104.633 14.0222C104.633 15.8889 105.744 16.8222 106.922 16.8222Z" fill="#2970FF"/>
<path d="M121.998 14.8667V8.04444H125.798V20H122.309V18.7111C121.643 19.6 120.376 20.2222 118.976 20.2222C116.598 20.2222 114.798 18.7333 114.798 15.5778V8.04444H118.598V14.8667C118.598 16.1778 119.243 16.8222 120.309 16.8222C121.065 16.8222 121.998 16.2222 121.998 14.8667Z" fill="#2970FF"/>
<path d="M132.078 13.7111V20H128.278V8.04444H131.766V9.48889C132.7 8.44444 133.811 7.82222 135.322 7.82222C137.678 7.82222 139.344 9.4 139.344 12.3111V20H135.544V13.5778C135.544 12.0667 135.011 11.2444 133.855 11.2444C132.922 11.2444 132.078 11.9111 132.078 13.7111Z" fill="#2970FF"/>
<path d="M140.977 14.0222C140.977 10.5556 143.088 7.82222 146.31 7.82222C147.555 7.82222 148.621 8.26667 149.555 9.15556V4.04444H153.355V20H149.866V18.6444C148.888 19.6667 147.71 20.2222 146.31 20.2222C143.088 20.2222 140.977 17.4444 140.977 14.0222ZM144.932 14.0222C144.932 15.8889 146.066 16.8 147.221 16.8C148.399 16.8 149.51 15.8889 149.51 14C149.51 12.0889 148.377 11.2444 147.221 11.2444C146.066 11.2444 144.932 12.1111 144.932 14.0222Z" fill="#2970FF"/>
<path d="M53.6175 37.7778L52.6064 35.0089H47.7842L46.7575 37.7778H45.0308L49.3086 26.6089H51.1908L55.4375 37.7778H53.6175ZM50.2108 28.4756L48.2975 33.6244H52.093L50.2108 28.4756Z" fill="#1F1E24"/>
<path d="M59.7726 37.9333C57.3926 37.9333 55.7904 36.2067 55.7904 33.6089C55.7904 31.1667 57.4549 29.3778 59.726 29.3778C62.1837 29.3778 63.8171 31.3689 63.5371 34.0444H57.3926C57.5171 35.7244 58.3571 36.7044 59.7415 36.7044C60.9082 36.7044 61.7171 36.0667 61.9815 34.9933H63.5371C63.1326 36.8289 61.7171 37.9333 59.7726 37.9333ZM59.6949 30.56C58.4349 30.56 57.5793 31.4622 57.4082 33.0022H61.8726C61.7949 31.4778 60.9704 30.56 59.6949 30.56Z" fill="#1F1E24"/>
<path d="M66.7786 33.5622V37.7778H65.2075V29.5333H66.6697V31.2756C67.2453 30.14 68.4897 29.4244 69.843 29.4244V31.0578C68.0697 30.9644 66.7786 31.7422 66.7786 33.5622Z" fill="#1F1E24"/>
<path d="M74.5093 37.9333C72.176 37.9333 70.4649 36.0978 70.4649 33.6556C70.4649 31.2133 72.176 29.3778 74.5093 29.3778C76.8427 29.3778 78.5538 31.2133 78.5538 33.6556C78.5538 36.0978 76.8427 37.9333 74.5093 37.9333ZM74.5093 36.5489C75.8627 36.5489 76.936 35.46 76.936 33.6556C76.936 31.8511 75.8627 30.7778 74.5093 30.7778C73.156 30.7778 72.0982 31.8511 72.0982 33.6556C72.0982 35.46 73.156 36.5489 74.5093 36.5489Z" fill="#1F1E24"/>
<path d="M84.6546 36.2533V37.6378C84.1724 37.8556 83.7524 37.9333 83.2546 37.9333C81.7301 37.9333 80.6724 37.1089 80.6724 35.2889V30.8711H78.8524V29.5333H80.6724V27.0911H82.2435V29.5333H84.7324V30.8711H82.2435V34.9311C82.2435 36.0667 82.7879 36.4711 83.6279 36.4711C84.0013 36.4711 84.3279 36.4089 84.6546 36.2533Z" fill="#1F1E24"/>
<path d="M89.395 37.9333C87.015 37.9333 85.4128 36.2067 85.4128 33.6089C85.4128 31.1667 87.0772 29.3778 89.3484 29.3778C91.8061 29.3778 93.4395 31.3689 93.1595 34.0444H87.015C87.1395 35.7244 87.9795 36.7044 89.3639 36.7044C90.5306 36.7044 91.3395 36.0667 91.6039 34.9933H93.1595C92.755 36.8289 91.3395 37.9333 89.395 37.9333ZM89.3172 30.56C88.0572 30.56 87.2017 31.4622 87.0306 33.0022H91.495C91.4172 31.4778 90.5928 30.56 89.3172 30.56Z" fill="#1F1E24"/>
<path d="M97.9291 37.9489C95.6735 37.9489 94.0868 36.1756 94.0868 33.6556C94.0868 31.1667 95.7046 29.3778 97.9291 29.3778C99.9669 29.3778 101.445 30.7311 101.74 32.8778H100.091C99.9202 31.5556 99.0957 30.7622 97.9446 30.7622C96.5913 30.7622 95.7046 31.9133 95.7046 33.6556C95.7046 35.4133 96.5913 36.5489 97.9446 36.5489C99.1113 36.5489 99.9202 35.7711 100.107 34.4333H101.74C101.46 36.6111 99.998 37.9489 97.9291 37.9489Z" fill="#1F1E24"/>
<path d="M104.893 33.1267V37.7778H103.322V26.6089H104.893V30.8556C105.437 29.9689 106.277 29.3778 107.413 29.3778C109.108 29.3778 110.228 30.4667 110.228 32.4422V37.7778H108.657V32.9711C108.657 31.5556 108.035 30.7622 106.868 30.7622C105.795 30.7622 104.893 31.6644 104.893 33.1267Z" fill="#1F1E24"/>
</svg>
